{
  "accessors": [
    {
      "bufferView": 2,
      "componentType": 5126,
      "count": 392,
      "max": [
        0.29041698575019836,
        0.31683099269866943,
        0.06861244887113571
      ],
      "min": [
        -0.2907229959964752,
        -0.2784389853477478,
        -0.257748007774353
      ],
      "type": "VEC3"
    },
    {
      "bufferView": 2,
      "byteOffset": 4704,
      "componentType": 5126,
      "count": 392,
      "max": [
        0.9983195066452026,
        0.9989277720451355,
        0.9686675071716309
      ],
      "min": [
        -0.9982646107673645,
        -0.9979737997055054,
        -0.9344843029975891
      ],
      "type": "VEC3"
    },
    {
      "bufferView": 1,
      "componentType": 5126,
      "count": 392,
      "max": [
        0.9384909868240356,
        0.7340930104255676
      ],
      "min": [
        0.03890597075223923,
        0.6430339813232422
      ],
      "type": "VEC2"
    },
    {
      "bufferView": 0,
      "componentType": 5125,
      "count": 1728,
      "type": "SCALAR"
    },
    {
      "bufferView": 2,
      "byteOffset": 9408,
      "componentType": 5126,
      "count": 2874,
      "max": [
        0.5,
        0.5,
        0.5
      ],
      "min": [
        -0.5,
        -0.5,
        -0.5
      ],
      "type": "VEC3"
    },
    {
      "bufferView": 2,
      "byteOffset": 43896,
      "componentType": 5126,
      "count": 2874,
      "max": [
        0.9979314804077148,
        0.9968129992485046,
        0.9999262094497681
      ],
      "min": [
        -0.9968227744102478,
        -0.9969385266304016,
        -0.9993438124656677
      ],
      "type": "VEC3"
    },
    {
      "bufferView": 1,
      "byteOffset": 3136,
      "componentType": 5126,
      "count": 2874,
      "max": [
        0.9849560260772705,
        0.9849479794502258
      ],
      "min": [
        0.01126796007156372,
        0.01126796007156372
      ],
      "type": "VEC2"
    },
    {
      "bufferView": 0,
      "byteOffset": 6912,
      "componentType": 5125,
      "count": 15648,
      "type": "SCALAR"
    }
  ],
  "asset": {
    "extras": {
      "author": "₦₥₵ ฿₵ (https://sketchfab.com/nmcbc)",
      "license": "CC-BY-4.0 (http://creativecommons.org/licenses/by/4.0/)",
      "source": "https://sketchfab.com/3d-models/cowboy-hat-1617962088bd492384bf68b9ab40f931",
      "title": "Cowboy Hat"
    },
    "generator": "Sketchfab-15.77.0",
    "version": "2.0"
  },
  "bufferViews": [
    {
      "buffer": 0,
      "byteLength": 69504,
      "name": "floatBufferViews",
      "target": 34963
    },
    {
      "buffer": 0,
      "byteLength": 26128,
      "byteOffset": 69504,
      "byteStride": 8,
      "name": "floatBufferViews",
      "target": 34962
    },
    {
      "buffer": 0,
      "byteLength": 78384,
      "byteOffset": 95632,
      "byteStride": 12,
      "name": "floatBufferViews",
      "target": 34962
    }
  ],
  "buffers": [
    {
      "byteLength": 174016,
      "uri": "scene.bin"
    }
  ],
  "materials": [
    {
      "doubleSided": true,
      "name": "Material0-material",
      "pbrMetallicRoughness": {
        "baseColorFactor": [
          0.024031858959787163,
          0.024031858959787163,
          0.024031858959787163,
          1.0
        ],
        "metallicFactor": 0.0,
        "roughnessFactor": 0.6
      }
    },
    {
      "doubleSided": true,
      "name": "Material1-material",
      "pbrMetallicRoughness": {
        "baseColorFactor": [
          0.030152376792982615,
          0.010241224224298247,
          0.003831429797941498,
          1.0
        ],
        "metallicFactor": 0.278857992710073,
        "roughnessFactor": 0.6
      }
    }
  ],
  "meshes": [
    {
      "name": "Material1-material-material",
      "primitives": [
        {
          "attributes": {
            "NORMAL": 1,
            "POSITION": 0,
            "TEXCOORD_0": 2
          },
          "indices": 3,
          "material": 1,
          "mode": 4
        }
      ]
    },
    {
      "name": "Material0-material-material",
      "primitives": [
        {
          "attributes": {
            "NORMAL": 5,
            "POSITION": 4,
            "TEXCOORD_0": 6
          },
          "indices": 7,
          "material": 0,
          "mode": 4
        }
      ]
    }
  ],
  "nodes": [
    {
      "children": [
        1
      ],
      "matrix": [
        1.0,
        0.0,
        0.0,
        0.0,
        0.0,
        2.220446049250313e-16,
        -1.0,
        0.0,
        0.0,
        1.0,
        2.220446049250313e-16,
        0.0,
        0.0,
        0.0,
        0.0,
        1.0
      ],
      "name": "Sketchfab_model"
    },
    {
      "children": [
        2,
        4
      ],
      "name": "Collada visual scene group"
    },
    {
      "children": [
        3
      ],
      "matrix": [
        -0.003566585,
        -0.3451646,
        -0.002496493,
        0.0,
        0.4151329,
        -0.004517885,
        0.0315674,
        0.0,
        -0.01683961,
        -0.001426232,
        0.2212483,
        0.0,
        3.8147e-05,
        0.000106812,
        0.03797992,
        1.0
      ],
      "name": "prim0"
    },
    {
      "mesh": 0,
      "name": "Material1-material-material"
    },
    {
      "children": [
        5
      ],
      "matrix": [
        -0.003566585,
        -0.3451646,
        -0.002496493,
        0.0,
        0.4151329,
        -0.004517885,
        0.0315674,
        0.0,
        -0.01683961,
        -0.001426232,
        0.2212483,
        0.0,
        3.8147e-05,
        0.000106812,
        0.03797992,
        1.0
      ],
      "name": "prim0.001"
    },
    {
      "mesh": 1,
      "name": "Material0-material-material"
    }
  ],
  "scene": 0,
  "scenes": [
    {
      "name": "Sketchfab_Scene",
      "nodes": [
        0
      ]
    }
  ]
}
