{
  "accessors": [
    {
      "bufferView": 1,
      "componentType": 5126,
      "count": 24127,
      "max": [
        45.635406494140625,
        -16.202409744262695,
        22.837629318237305
      ],
      "min": [
        -43.97087860107422,
        -30.89640998840332,
        -8.752806663513184
      ],
      "type": "VEC3"
    },
    {
      "bufferView": 1,
      "byteOffset": 289524,
      "componentType": 5126,
      "count": 24127,
      "max": [
        1.0,
        1.0,
        1.0
      ],
      "min": [
        -1.0,
        -1.0,
        -1.0
      ],
      "type": "VEC3"
    },
    {
      "bufferView": 2,
      "componentType": 5126,
      "count": 24127,
      "max": [
        0.9372549057006836,
        0.9372549057006836,
        0.9372549057006836,
        1.0
      ],
      "min": [
        0.7764706015586853,
        0.7764706015586853,
        0.7764706015586853,
        1.0
      ],
      "type": "VEC4"
    },
    {
      "bufferView": 0,
      "componentType": 5125,
      "count": 128754,
      "type": "SCALAR"
    }
  ],
  "asset": {
    "extras": {
      "author": "Calfan (https://sketchfab.com/Calfan)",
      "license": "CC-BY-NC-4.0 (http://creativecommons.org/licenses/by-nc/4.0/)",
      "source": "https://sketchfab.com/3d-models/naruto-headband-ff1d4d15eddd403ea4ba7716212a2899",
      "title": "Naruto Headband"
    },
    "generator": "Sketchfab-12.68.0",
    "version": "2.0"
  },
  "bufferViews": [
    {
      "buffer": 0,
      "byteLength": 515016,
      "name": "floatBufferViews",
      "target": 34963
    },
    {
      "buffer": 0,
      "byteLength": 579048,
      "byteOffset": 515016,
      "byteStride": 12,
      "name": "floatBufferViews",
      "target": 34962
    },
    {
      "buffer": 0,
      "byteLength": 386032,
      "byteOffset": 1094064,
      "byteStride": 16,
      "name": "floatBufferViews",
      "target": 34962
    }
  ],
  "buffers": [
    {
      "byteLength": 1480096,
      "uri": "scene.bin"
    }
  ],
  "extensionsUsed": [
    "KHR_materials_clearcoat"
  ],
  "materials": [
    {
      "doubleSided": true,
      "extensions": {
        "KHR_materials_clearcoat": {
          "clearcoatFactor": 1.0,
          "clearcoatRoughnessFactor": 0.15371461143834314
        }
      },
      "name": "Scene_-_Root",
      "pbrMetallicRoughness": {
        "baseColorFactor": [
          0.7578125,
          0.7578125,
          0.7578125,
          1.0
        ],
        "metallicFactor": 0.7700076219512195,
        "roughnessFactor": 0.1658749762492875
      }
    }
  ],
  "meshes": [
    {
      "name": "Object_0",
      "primitives": [
        {
          "attributes": {
            "COLOR_0": 2,
            "NORMAL": 1,
            "POSITION": 0
          },
          "indices": 3,
          "material": 0,
          "mode": 4
        }
      ]
    }
  ],
  "nodes": [
    {
      "children": [
        1
      ],
      "matrix": [
        1.0,
        0.0,
        0.0,
        0.0,
        0.0,
        2.220446049250313e-16,
        -1.0,
        0.0,
        0.0,
        1.0,
        2.220446049250313e-16,
        0.0,
        0.0,
        0.0,
        0.0,
        1.0
      ],
      "name": "Sketchfab_model"
    },
    {
      "children": [
        2
      ],
      "name": "Naruto v15.stl.cleaner.materialmerger.gles"
    },
    {
      "mesh": 0,
      "name": "Object_2"
    }
  ],
  "scene": 0,
  "scenes": [
    {
      "name": "Sketchfab_Scene",
      "nodes": [
        0
      ]
    }
  ]
}
