{
  "accessors": [
    {
      "bufferView": 2,
      "componentType": 5126,
      "count": 360,
      "max": [
        0.5942580103874207,
        0.649170994758606,
        1.0
      ],
      "min": [
        -0.5942580103874207,
        -0.6491720080375671,
        -1.0
      ],
      "type": "VEC3"
    },
    {
      "bufferView": 2,
      "byteOffset": 4320,
      "componentType": 5126,
      "count": 360,
      "max": [
        0.9957049489021301,
        0.9769903421401978,
        0.9913701415061951
      ],
      "min": [
        -0.9957049489021301,
        -0.9858266115188599,
        -0.9990630745887756
      ],
      "type": "VEC3"
    },
    {
      "bufferView": 1,
      "componentType": 5126,
      "count": 360,
      "max": [
        0.9999319911003113,
        0.35138100385665894
      ],
      "min": [
        6.763709825463593e-05,
        6.765127182006836e-05
      ],
      "type": "VEC2"
    },
    {
      "bufferView": 0,
      "componentType": 5125,
      "count": 1758,
      "type": "SCALAR"
    }
  ],
  "asset": {
    "extras": {
      "author": "sachin kumar (https://sketchfab.com/kayozz)",
      "license": "CC-BY-4.0 (http://creativecommons.org/licenses/by/4.0/)",
      "source": "https://sketchfab.com/3d-models/bandana-mask-b0d1c64f6bf94578857451402fd4ef52",
      "title": "Bandana_mask"
    },
    "generator": "Sketchfab-15.18.0",
    "version": "2.0"
  },
  "bufferViews": [
    {
      "buffer": 0,
      "byteLength": 7032,
      "name": "floatBufferViews",
      "target": 34963
    },
    {
      "buffer": 0,
      "byteLength": 2880,
      "byteOffset": 7032,
      "byteStride": 8,
      "name": "floatBufferViews",
      "target": 34962
    },
    {
      "buffer": 0,
      "byteLength": 8640,
      "byteOffset": 9912,
      "byteStride": 12,
      "name": "floatBufferViews",
      "target": 34962
    }
  ],
  "buffers": [
    {
      "byteLength": 18552,
      "uri": "scene.bin"
    }
  ],
  "images": [
    {
      "uri": "textures/bandana_mask_baseColor.png"
    }
  ],
  "materials": [
    {
      "doubleSided": true,
      "name": "bandana_mask",
      "pbrMetallicRoughness": {
        "baseColorTexture": {
          "index": 0
        },
        "metallicFactor": 0.0,
        "roughnessFactor": 0.9
      }
    }
  ],
  "meshes": [
    {
      "name": "Object_0",
      "primitives": [
        {
          "attributes": {
            "NORMAL": 1,
            "POSITION": 0,
            "TEXCOORD_0": 2
          },
          "indices": 3,
          "material": 0,
          "mode": 4
        }
      ]
    }
  ],
  "nodes": [
    {
      "children": [
        1
      ],
      "matrix": [
        1.0,
        0.0,
        0.0,
        0.0,
        0.0,
        2.220446049250313e-16,
        -1.0,
        0.0,
        0.0,
        1.0,
        2.220446049250313e-16,
        0.0,
        0.0,
        0.0,
        0.0,
        1.0
      ],
      "name": "Sketchfab_model"
    },
    {
      "children": [
        2
      ],
      "name": "root"
    },
    {
      "children": [
        3
      ],
      "matrix": [
        1.0,
        0.0,
        0.0,
        0.0,
        0.0,
        2.220446049250313e-16,
        1.0,
        0.0,
        0.0,
        -1.0,
        2.220446049250313e-16,
        0.0,
        0.0,
        0.0,
        0.0,
        1.0
      ],
      "name": "GLTF_SceneRootNode"
    },
    {
      "children": [
        4
      ],
      "matrix": [
        5.985899925231934,
        0.0,
        0.0,
        0.0,
        0.0,
        5.9559704692603015,
        0.5978504005098876,
        0.0,
        0.0,
        -0.55252483794472,
        5.504423206081236,
        0.0,
        -0.010113381780683994,
        4.008581161499023,
        -0.47622522711753845,
        1.0
      ],
      "name": "bandana_mask_0"
    },
    {
      "mesh": 0,
      "name": "Object_4"
    }
  ],
  "samplers": [
    {
      "magFilter": 9729,
      "minFilter": 9987,
      "wrapS": 10497,
      "wrapT": 10497
    }
  ],
  "scene": 0,
  "scenes": [
    {
      "name": "Sketchfab_Scene",
      "nodes": [
        0
      ]
    }
  ],
  "textures": [
    {
      "sampler": 0,
      "source": 0
    }
  ]
}
