{
  "accessors": [
    {
      "bufferView": 2,
      "componentType": 5126,
      "count": 3894,
      "max": [
        5.432975769042969,
        5.764835834503174,
        2.629019260406494
      ],
      "min": [
        -5.432975769042969,
        -5.508291721343994,
        -2.424375057220459
      ],
      "type": "VEC3"
    },
    {
      "bufferView": 2,
      "byteOffset": 46728,
      "componentType": 5126,
      "count": 3894,
      "max": [
        0.9997589588165283,
        0.9987595677375793,
        0.9998221397399902
      ],
      "min": [
        -0.9997589588165283,
        -0.9450051784515381,
        -0.9998371005058289
      ],
      "type": "VEC3"
    },
    {
      "bufferView": 1,
      "componentType": 5126,
      "count": 3894,
      "max": [
        0.7113170623779297,
        0.999915599822998
      ],
      "min": [
        8.440017700195313e-05,
        8.440017700195313e-05
      ],
      "type": "VEC2"
    },
    {
      "bufferView": 0,
      "componentType": 5125,
      "count": 23376,
      "type": "SCALAR"
    }
  ],
  "asset": {
    "extras": {
      "author": "FJ5226 (https://sketchfab.com/FJ5226)",
      "license": "CC-BY-4.0 (http://creativecommons.org/licenses/by/4.0/)",
      "source": "https://sketchfab.com/3d-models/mask-792195d2ae1b4f11b73904473cdcd2fb",
      "title": "Mask"
    },
    "generator": "Sketchfab-15.13.0",
    "version": "2.0"
  },
  "bufferViews": [
    {
      "buffer": 0,
      "byteLength": 93504,
      "name": "floatBufferViews",
      "target": 34963
    },
    {
      "buffer": 0,
      "byteLength": 31152,
      "byteOffset": 93504,
      "byteStride": 8,
      "name": "floatBufferViews",
      "target": 34962
    },
    {
      "buffer": 0,
      "byteLength": 93456,
      "byteOffset": 124656,
      "byteStride": 12,
      "name": "floatBufferViews",
      "target": 34962
    }
  ],
  "buffers": [
    {
      "byteLength": 218112,
      "uri": "scene.bin"
    }
  ],
  "extensionsRequired": [
    "KHR_materials_pbrSpecularGlossiness"
  ],
  "extensionsUsed": [
    "KHR_materials_pbrSpecularGlossiness",
    "KHR_materials_emissive_strength"
  ],
  "images": [
    {
      "uri": "textures/Material.001_diffuse.png"
    }
  ],
  "materials": [
    {
      "doubleSided": true,
      "extensions": {
        "KHR_materials_emissive_strength": {
          "emissiveStrength": 3.1
        },
        "KHR_materials_pbrSpecularGlossiness": {
          "diffuseFactor": [
            1.0,
            1.0,
            1.0,
            1.0
          ],
          "diffuseTexture": {
            "index": 0
          },
          "glossinessFactor": 0.3032390193951067,
          "specularFactor": [
            0.09600029257232022,
            0.09600029257232022,
            0.09600029257232022
          ]
        }
      },
      "name": "Material.001"
    }
  ],
  "meshes": [
    {
      "name": "Mask Cat_Material.001_0",
      "primitives": [
        {
          "attributes": {
            "NORMAL": 1,
            "POSITION": 0,
            "TEXCOORD_0": 2
          },
          "indices": 3,
          "material": 0,
          "mode": 4
        }
      ]
    }
  ],
  "nodes": [
    {
      "children": [
        1
      ],
      "matrix": [
        1.0,
        0.0,
        0.0,
        0.0,
        0.0,
        2.220446049250313e-16,
        -1.0,
        0.0,
        0.0,
        1.0,
        2.220446049250313e-16,
        0.0,
        0.0,
        0.0,
        0.0,
        1.0
      ],
      "name": "Sketchfab_model"
    },
    {
      "children": [
        2
      ],
      "matrix": [
        0.009999999776482582,
        0.0,
        0.0,
        0.0,
        0.0,
        0.0,
        0.009999999776482582,
        0.0,
        0.0,
        -0.009999999776482582,
        0.0,
        0.0,
        0.0,
        0.0,
        0.0,
        1.0
      ],
      "name": "768687fdec2d4d7c885ce88baa5f311a.fbx"
    },
    {
      "children": [
        3,
        5
      ],
      "name": "RootNode"
    },
    {
      "children": [
        4
      ],
      "matrix": [
        31.062902825753813,
        3.419142527118356,
        -94.99160769466441,
        0.0,
        -1.0627978970422054,
        99.94153022827884,
        3.2497686471611815,
        0.0,
        95.04718054033911,
        9.633201598253927e-05,
        31.081078992256717,
        0.0,
        -375.613037109375,
        -30.28670883178711,
        1088.718505859375,
        1.0
      ],
      "name": "Camera"
    },
    {
      "name": "Object_4"
    },
    {
      "children": [
        6
      ],
      "matrix": [
        37.0478515625,
        0.0,
        0.0,
        0.0,
        0.0,
        37.047851562499964,
        1.6194130248378678e-06,
        0.0,
        0.0,
        -1.6194130248378678e-06,
        37.047851562499964,
        0.0,
        -0.0932931900024414,
        24.911991119384766,
        3.347146275700652e-06,
        1.0
      ],
      "name": "Mask Cat"
    },
    {
      "mesh": 0,
      "name": "Mask Cat_Material.001_0"
    }
  ],
  "samplers": [
    {
      "magFilter": 9729,
      "minFilter": 9987,
      "wrapS": 10497,
      "wrapT": 10497
    }
  ],
  "scene": 0,
  "scenes": [
    {
      "name": "Sketchfab_Scene",
      "nodes": [
        0
      ]
    }
  ],
  "textures": [
    {
      "sampler": 0,
      "source": 0
    }
  ]
}
